<svg width="34" height="24" viewBox="0 0 34 24" fill="none" xmlns="http://www.w3.org/2000/svg">
<rect x="0.5" y="0.5" width="33" height="23" rx="3.5" fill="white"/>
<rect x="0.5" y="0.5" width="33" height="23" rx="3.5" stroke="#F9F7F6"/>
<path d="M8.89758 9.11641C9.17842 9.02259 9.47865 8.97217 9.79129 8.97217C11.1545 8.97217 12.2926 9.94044 12.5533 11.2274L14.4857 10.8333C14.0422 8.64604 12.1094 7 9.79129 7C9.26011 7 8.74984 7.08657 8.27246 7.24607L8.89758 9.11641Z" fill="#FFCC00"/>
<path d="M6.61677 15.3791L7.92355 13.9017C7.34021 13.3849 6.97217 12.6307 6.97217 11.7904C6.97217 10.9508 7.33971 10.1969 7.92266 9.68078L6.61577 8.20312C5.62511 9.08081 5 10.3628 5 11.7904C5 13.2189 5.62536 14.5013 6.61677 15.3791Z" fill="#00A0DE"/>
<path d="M12.5526 12.3555C12.2908 13.6419 11.1539 14.6082 9.79108 14.6082C9.47834 14.6082 9.17723 14.5578 8.89651 14.4635L8.27051 16.3346C8.74801 16.494 9.25929 16.5803 9.79108 16.5803C12.1069 16.5803 14.0395 14.937 14.4847 12.7518L12.5526 12.3555Z" fill="#EC3413"/>
<path d="M16.1754 13.964C16.1121 13.8614 16.026 13.6974 15.9742 13.5767C15.6682 12.8663 15.6536 12.1311 15.912 11.4253C16.1961 10.6513 16.7389 10.0587 17.4402 9.75695C18.3219 9.37753 19.2971 9.45234 20.1421 9.95374C20.6789 10.2617 21.0595 10.7372 21.3484 11.4095L21.3752 11.4748L21.4253 11.6047C21.4333 11.6257 21.4412 11.6461 21.4491 11.6656L16.1754 13.964ZM17.9364 10.8975C17.3102 11.1666 16.9875 11.7539 17.0538 12.4425L19.7061 11.301C19.25 10.765 18.6564 10.5874 17.9364 10.8975ZM21.0621 14.0666L20.0369 13.3812L20.0354 13.3827L19.9805 13.3456C19.8222 13.6025 19.5753 13.8105 19.2637 13.9456C18.6708 14.2034 18.1214 14.1371 17.7268 13.7911L17.6906 13.8463C17.6902 13.8456 17.69 13.8452 17.6894 13.8452L17.0165 14.8518C17.1835 14.9679 17.3629 15.0662 17.5513 15.1448C18.2946 15.4536 19.0551 15.4393 19.8043 15.1134C20.3463 14.8786 20.7715 14.5204 21.0621 14.0666ZM23.2925 8.27441V13.8711L24.1625 14.2237L23.6681 15.3774L22.7076 14.9774C22.4921 14.8841 22.3453 14.7412 22.2342 14.58C22.128 14.4156 22.0486 14.1901 22.0486 13.8863V8.27441H23.2925ZM25.5466 12.4453C25.5471 11.9687 25.7575 11.5413 26.0905 11.2509L25.1978 10.2555C24.5923 10.7906 24.211 11.5726 24.2103 12.4439C24.2093 13.3155 24.5901 14.0984 25.1949 14.6349L26.0866 13.6385C25.7552 13.3469 25.5462 12.9208 25.5466 12.4453ZM27.1327 14.0338C26.9569 14.0333 26.7877 14.0043 26.6298 13.9517L26.2035 15.2194C26.4948 15.3172 26.8069 15.3705 27.1313 15.371C28.5448 15.3724 29.7251 14.3694 29.9986 13.0361L28.6882 12.7686C28.5392 13.4913 27.8993 14.0343 27.1327 14.0338ZM27.1366 9.52265C26.8126 9.52228 26.5006 9.57494 26.2096 9.67189L26.6322 10.9406C26.7906 10.8883 26.9598 10.8594 27.1353 10.8594C27.9037 10.8602 28.5441 11.4065 28.6896 12.1312L30.0001 11.8654C29.7304 10.5302 28.5512 9.52351 27.1366 9.52265Z" fill="black"/>
</svg>
