<svg width="34" height="24" viewBox="0 0 34 24" fill="none" xmlns="http://www.w3.org/2000/svg">
<rect x="0.5" y="0.5" width="33" height="23" rx="3.5" fill="#B82126"/>
<rect x="0.5" y="0.5" width="33" height="23" rx="3.5" stroke="#B82126"/>
<path d="M23.0885 13.9086C22.7528 14.2372 21.8105 14.3306 21.9069 13.545C21.9869 12.8925 22.6973 12.7539 23.4672 12.8481C23.41 13.205 23.3444 13.6582 23.0885 13.9086ZM22.0281 11.3635C21.996 11.5435 21.9468 11.7064 21.9069 11.8785C22.2913 11.7822 23.4883 11.4866 23.6036 11.9997C23.6419 12.1702 23.5759 12.3513 23.5279 12.4845C22.4454 12.382 21.5632 12.5618 21.3312 13.3329C21.1758 13.8494 21.3486 14.3576 21.6796 14.4995C22.3172 14.7726 23.0928 14.4597 23.3612 14.0298C23.3334 14.1786 23.3069 14.3289 23.3158 14.5146H23.8763C23.8822 13.9778 23.9604 13.5432 24.0429 13.0602C24.1134 12.6488 24.2458 12.2416 24.2247 11.8785C24.1766 11.0471 22.7991 11.3412 22.0281 11.3635ZM27.6485 14.1661C27.21 14.1755 26.9919 13.9041 26.9819 13.4541C26.9645 12.666 27.3102 11.7904 28.0121 11.7119C28.3389 11.6754 28.5756 11.7514 28.8151 11.8331C28.5952 12.7184 28.6746 14.1441 27.6485 14.1661ZM29.1029 10C29.0471 10.4895 28.9724 10.9603 28.8757 11.4089C27.2778 10.9031 26.2978 12.0788 26.3154 13.5298C26.3188 13.8105 26.3671 14.0888 26.5426 14.2873C26.8451 14.6294 27.7112 14.7112 28.1485 14.4237C28.2332 14.3681 28.3196 14.2668 28.3758 14.1965C28.4179 14.1435 28.4848 14.0051 28.4969 14.0449C28.4739 14.1987 28.4396 14.3411 28.4364 14.5146H29.0272C29.141 12.8812 29.4931 11.486 29.7544 10H29.1029ZM12.4232 13.9238C12.0747 14.2929 11.2179 14.2872 11.1507 13.6662C11.1214 13.3959 11.2221 13.1126 11.2719 12.833C11.3222 12.55 11.3585 12.2785 11.4082 12.03C11.7515 11.6108 12.7602 11.5602 12.8626 12.2573C12.9514 12.8625 12.7119 13.6181 12.4232 13.9238ZM12.9384 11.3635C12.387 11.1564 11.715 11.4036 11.4237 11.6388C11.4247 11.6491 11.4168 11.6505 11.4082 11.6513C11.4132 11.6471 11.4185 11.6429 11.4237 11.6388C11.4236 11.6379 11.4236 11.6371 11.4234 11.6362C11.4283 11.535 11.4639 11.4646 11.4688 11.3635H10.9083C10.6747 12.9175 10.3977 14.4281 10.1054 15.9235H10.7568C10.8511 15.3411 10.9134 14.7267 11.0446 14.1813C11.1934 14.7549 12.1648 14.6453 12.5747 14.4237C13.4205 13.9664 14.0729 11.7896 12.9384 11.3635ZM16.0288 12.4542H14.4988C14.5472 12.1025 14.8636 11.7158 15.3622 11.6968C15.8315 11.6788 16.1675 11.8691 16.0288 12.4542ZM15.4077 11.3029C14.937 11.3391 14.5391 11.4746 14.2564 11.7725C13.9095 12.1379 13.6286 12.9457 13.7109 13.6814C13.8284 14.7309 15.1351 14.6932 16.1804 14.4388C16.1981 14.2546 16.2427 14.0972 16.2712 13.9238C15.8406 14.0849 15.0931 14.3098 14.6502 14.0298C14.3159 13.8184 14.3139 13.2831 14.423 12.8178C15.1255 12.7955 15.8556 12.7998 16.5591 12.8178C16.6037 12.4881 16.7314 12.1285 16.6196 11.8028C16.4722 11.3728 15.9446 11.2615 15.4077 11.3029ZM9.68118 11.3635C9.66353 11.366 9.66471 11.3874 9.666 11.4089C9.52247 12.4824 9.32824 13.5052 9.12065 14.5146H9.77206C9.92859 13.4339 10.1079 12.376 10.3326 11.3635H9.68118ZM26.679 11.3786C26.1032 11.0908 25.6239 11.5738 25.4368 11.8634C25.4901 11.7148 25.4931 11.5158 25.5428 11.3635H24.9671C24.8119 12.4455 24.6247 13.4955 24.4065 14.5146H25.0731C25.0774 14.0969 25.1594 13.788 25.2246 13.3784C25.3639 12.5038 25.5684 11.5447 26.5881 11.8331C26.6219 11.6852 26.636 11.5174 26.679 11.3786ZM19.3617 13.7722C19.3017 13.6171 19.2861 13.3609 19.3011 13.1662C19.3348 12.7285 19.4943 12.1955 19.7405 11.9543C20.0802 11.6213 20.7508 11.6764 21.2857 11.8634C21.3023 11.6831 21.3385 11.5223 21.3615 11.3484C20.4842 11.2051 19.6516 11.2942 19.2102 11.7574C18.7782 12.2108 18.4949 13.2529 18.6951 13.9086C18.9295 14.6759 19.9804 14.7176 20.8313 14.4237C20.8689 14.2695 20.8888 14.0975 20.9222 13.9389C20.4572 14.1805 19.5684 14.306 19.3617 13.7722ZM18.9982 11.3635C18.4205 11.1302 17.9665 11.5244 17.7559 11.8937C17.8036 11.7294 17.8234 11.537 17.8619 11.3635H17.2862C17.1455 12.4549 16.9381 13.4796 16.7409 14.5146H17.3924C17.4836 13.9002 17.5231 13.0722 17.7256 12.4845C17.8875 12.0149 18.3111 11.6149 18.9224 11.8331C18.931 11.6599 18.9806 11.5276 18.9982 11.3635ZM8.49953 10.0909C8.40647 10.6947 8.30165 11.2868 8.19653 11.8785C7.52165 11.8856 6.83259 11.9119 6.18165 11.8634C6.30459 11.2845 6.39276 10.6707 6.51488 10.0909H5.78776C5.52741 11.5678 5.29065 13.0681 5 14.5146H5.74229C5.85876 13.7725 5.96765 13.0229 6.121 12.3179C6.75394 12.3023 7.51253 12.2751 8.12076 12.3331C7.99535 13.0661 7.84382 13.773 7.72688 14.5146H8.46924C8.70771 13.0159 8.95906 11.5301 9.257 10.0909H8.49953ZM10.3478 10.7575C10.4776 10.6681 10.6449 10.2605 10.4538 10.0909C10.3933 10.0372 10.292 10.0216 10.1508 10.0455C10.0198 10.0676 9.94447 10.1121 9.89329 10.1818C9.81094 10.2939 9.73553 10.6319 9.86294 10.7575C9.98706 10.8798 10.2651 10.8144 10.3478 10.7575Z" fill="white"/>
</svg>
