<svg width="20" height="15" viewBox="0 0 20 15" fill="none" xmlns="http://www.w3.org/2000/svg">
<g id="JCB">
<path id="Vector" d="M14.9818 7.95424C15.5131 7.96578 16.0473 7.93078 16.5765 7.97242C17.1123 8.07239 17.2415 8.88363 16.7654 9.14931C16.4406 9.32434 16.0547 9.2145 15.7025 9.24537H14.9818V7.95424ZM16.8837 6.49284C17.0017 6.90946 16.6001 7.28353 16.1988 7.22615H14.9818C14.9903 6.83326 14.9651 6.40683 14.9942 6.03462C15.4817 6.04835 15.9737 6.00662 16.4585 6.05645C16.6667 6.10877 16.841 6.27999 16.8837 6.49284ZM19.8126 0.314482C19.8352 1.11012 19.8158 1.94781 19.8223 2.75959C19.8208 6.05999 19.8255 9.3603 19.8198 12.6609C19.7984 13.8978 18.7022 14.9726 17.4739 14.9972C16.2443 15.0022 15.0146 14.998 13.7849 14.9994V10.0099C15.1247 10.003 16.4652 10.0239 17.8045 9.99941C18.4258 9.96041 19.1063 9.55047 19.1352 8.86676C19.2084 8.18009 18.561 7.70514 17.9463 7.63013C17.7101 7.62399 17.717 7.56126 17.9463 7.53389C18.5326 7.40718 18.9929 6.80044 18.8204 6.19279C18.6735 5.55368 17.9671 5.30631 17.3795 5.30754C16.1815 5.2994 14.9832 5.30641 13.7852 5.30404C13.7929 4.37256 13.769 3.44008 13.798 2.50928C13.893 1.2947 15.0167 0.293069 16.2278 0.3148C17.4229 0.314618 18.6178 0.314618 19.8126 0.314573V0.314482Z" fill="url(#paint0_linear_877_291)"/>
<path id="Vector_2" d="M0.24671 2.6353C0.277307 1.40035 1.37818 0.334394 2.60494 0.316345C3.82993 0.312572 5.0551 0.3158 6.28009 0.314709C6.27672 4.44657 6.28673 8.57889 6.27504 12.7105C6.22785 13.9305 5.13898 14.9761 3.92558 14.9977C2.69828 15.0022 1.47083 14.9983 0.243483 14.9996V9.84184C1.43565 10.1235 2.68582 10.2434 3.90203 10.0566C4.62903 9.93958 5.42444 9.58257 5.67057 8.82834C5.8517 8.18318 5.74972 7.5042 5.77668 6.84204V5.30427H3.6719C3.66245 6.32131 3.69127 7.34013 3.65667 8.35594C3.59994 8.98032 2.9816 9.37703 2.39272 9.35584C1.66241 9.36357 0.215204 8.82657 0.215204 8.82657C0.211567 6.92105 0.23639 4.53468 0.24671 2.63548V2.6353Z" fill="url(#paint1_linear_877_291)"/>
<path id="Vector_3" d="M7.06537 5.92476C6.95458 5.94826 7.04309 5.54738 7.01477 5.3953C7.02231 4.43377 6.99899 3.47119 7.02763 2.51034C7.12229 1.29063 8.2547 0.286497 9.47068 0.315047H13.0517C13.0483 4.44691 13.0582 8.57923 13.0466 12.7109C12.9994 13.9308 11.9104 14.9764 10.697 14.998C9.46964 15.0027 8.24216 14.9988 7.01472 14.9999V9.34895C7.853 10.0368 8.99233 10.1438 10.0367 10.1457C10.824 10.1454 11.6067 10.024 12.3713 9.84245V8.80718C11.5097 9.23662 10.4968 9.50939 9.5416 9.26267C8.87531 9.09682 8.39164 8.45289 8.40241 7.76527C8.32522 7.05019 8.74438 6.29524 9.44709 6.08265C10.3196 5.80951 11.2704 6.01841 12.0883 6.37352C12.2635 6.46527 12.4413 6.57906 12.3713 6.28619V5.47245C11.0035 5.14703 9.54788 5.02729 8.17374 5.3813C7.77599 5.4935 7.38847 5.66367 7.06537 5.92485V5.92476Z" fill="url(#paint2_linear_877_291)"/>
</g>
<defs>
<linearGradient id="paint0_linear_877_291" x1="13.7437" y1="7.34295" x2="19.7843" y2="7.34295" gradientUnits="userSpaceOnUse">
<stop stop-color="#58B03A"/>
<stop offset="1" stop-color="#55B330"/>
</linearGradient>
<linearGradient id="paint1_linear_877_291" x1="0.115046" y1="7.79776" x2="6.18111" y2="7.79776" gradientUnits="userSpaceOnUse">
<stop stop-color="#0F6EB6"/>
<stop offset="1" stop-color="#006DBA"/>
</linearGradient>
<linearGradient id="paint2_linear_877_291" x1="7.00587" y1="7.48578" x2="13.0505" y2="7.48578" gradientUnits="userSpaceOnUse">
<stop stop-color="#DE0D3D"/>
<stop offset="1" stop-color="#E30138"/>
</linearGradient>
</defs>
</svg>
