<svg width="19" height="18" viewBox="0 0 19 18" fill="none" xmlns="http://www.w3.org/2000/svg">
<g id="bi:credit-card-2-back" clip-path="url(#clip0_946_450)">
<g id="Group">
<path id="Vector" d="M12.875 6.1875C12.875 6.03832 12.9343 5.89524 13.0398 5.78975C13.1452 5.68426 13.2883 5.625 13.4375 5.625H15.6875C15.8367 5.625 15.9798 5.68426 16.0852 5.78975C16.1907 5.89524 16.25 6.03832 16.25 6.1875V7.3125C16.25 7.46168 16.1907 7.60476 16.0852 7.71025C15.9798 7.81574 15.8367 7.875 15.6875 7.875H13.4375C13.2883 7.875 13.1452 7.81574 13.0398 7.71025C12.9343 7.60476 12.875 7.46168 12.875 7.3125V6.1875Z" fill="white"/>
<path id="Vector_2" d="M2.75 2.25C2.15326 2.25 1.58097 2.48705 1.15901 2.90901C0.737053 3.33097 0.5 3.90326 0.5 4.5L0.5 13.5C0.5 14.0967 0.737053 14.669 1.15901 15.091C1.58097 15.5129 2.15326 15.75 2.75 15.75H16.25C16.8467 15.75 17.419 15.5129 17.841 15.091C18.2629 14.669 18.5 14.0967 18.5 13.5V4.5C18.5 3.90326 18.2629 3.33097 17.841 2.90901C17.419 2.48705 16.8467 2.25 16.25 2.25H2.75ZM17.375 4.5V10.125H1.625V4.5C1.625 4.20163 1.74353 3.91548 1.9545 3.7045C2.16548 3.49353 2.45163 3.375 2.75 3.375H16.25C16.5484 3.375 16.8345 3.49353 17.0455 3.7045C17.2565 3.91548 17.375 4.20163 17.375 4.5ZM16.25 14.625H2.75C2.45163 14.625 2.16548 14.5065 1.9545 14.2955C1.74353 14.0845 1.625 13.7984 1.625 13.5V12.375H17.375V13.5C17.375 13.7984 17.2565 14.0845 17.0455 14.2955C16.8345 14.5065 16.5484 14.625 16.25 14.625Z" fill="white"/>
</g>
</g>
<defs>
<clipPath id="clip0_946_450">
<rect width="18" height="18" fill="white" transform="translate(0.5)"/>
</clipPath>
</defs>
</svg>
