<svg width="19" height="14" viewBox="0 0 19 14" fill="none" xmlns="http://www.w3.org/2000/svg">
<path id="Vector" d="M0.5 2.5C0.5 1.90326 0.737053 1.33097 1.15901 0.90901C1.58097 0.487053 2.15326 0.25 2.75 0.25H16.25C16.8467 0.25 17.419 0.487053 17.841 0.90901C18.2629 1.33097 18.5 1.90326 18.5 2.5V8.125H0.5V2.5ZM13.4375 3.625C13.2883 3.625 13.1452 3.68426 13.0398 3.78975C12.9343 3.89524 12.875 4.03832 12.875 4.1875V5.3125C12.875 5.46168 12.9343 5.60476 13.0398 5.71025C13.1452 5.81574 13.2883 5.875 13.4375 5.875H15.6875C15.8367 5.875 15.9798 5.81574 16.0852 5.71025C16.1907 5.60476 16.25 5.46168 16.25 5.3125V4.1875C16.25 4.03832 16.1907 3.89524 16.0852 3.78975C15.9798 3.68426 15.8367 3.625 15.6875 3.625H13.4375ZM0.5 10.375V11.5C0.5 12.0967 0.737053 12.669 1.15901 13.091C1.58097 13.5129 2.15326 13.75 2.75 13.75H16.25C16.8467 13.75 17.419 13.5129 17.841 13.091C18.2629 12.669 18.5 12.0967 18.5 11.5V10.375H0.5Z" fill="#F5831F"/>
</svg>
