<svg width="18" height="16" viewBox="0 0 18 16" fill="none" xmlns="http://www.w3.org/2000/svg">
<g id="fa6-solid:money-check">
<path id="Vector" d="M2 2C0.896875 2 0 2.89688 0 4V12C0 13.1031 0.896875 14 2 14H16C17.1031 14 18 13.1031 18 12V4C18 2.89688 17.1031 2 16 2H2ZM3.5 7H8.5C8.775 7 9 7.225 9 7.5C9 7.775 8.775 8 8.5 8H3.5C3.225 8 3 7.775 3 7.5C3 7.225 3.225 7 3.5 7ZM3 10.5C3 10.225 3.225 10 3.5 10H14.5C14.775 10 15 10.225 15 10.5C15 10.775 14.775 11 14.5 11H3.5C3.225 11 3 10.775 3 10.5ZM11.75 5H14.25C14.6656 5 15 5.33437 15 5.75V7.25C15 7.66563 14.6656 8 14.25 8H11.75C11.3344 8 11 7.66563 11 7.25V5.75C11 5.33437 11.3344 5 11.75 5Z" fill="#7F868D"/>
</g>
</svg>
