<svg width="16" height="16" viewBox="0 0 16 16" fill="none" xmlns="http://www.w3.org/2000/svg">
<g id="fa:bank" clip-path="url(#clip0_361_538)">
<path id="Vector" d="M8.00018 0.535156L15.9984 3.73445V4.80088H14.932C14.932 4.94529 14.875 5.07026 14.7612 5.17579C14.6473 5.28132 14.5126 5.33409 14.3571 5.33409H1.64326C1.48773 5.33409 1.35304 5.28132 1.23918 5.17579C1.12531 5.07026 1.06838 4.94529 1.06838 4.80088H0.00195312V3.73445L8.00018 0.535156ZM2.13481 5.8673H4.26767V12.2659H5.3341V5.8673H7.46696V12.2659H8.53339V5.8673H10.6663V12.2659H11.7327V5.8673H13.8655V12.2659H14.3571C14.5126 12.2659 14.6473 12.3186 14.7612 12.4242C14.875 12.5297 14.932 12.6547 14.932 12.7991V13.3323H1.06838V12.7991C1.06838 12.6547 1.12531 12.5297 1.23918 12.4242C1.35304 12.3186 1.48773 12.2659 1.64326 12.2659H2.13481V5.8673ZM15.4235 13.8655C15.579 13.8655 15.7137 13.9183 15.8276 14.0238C15.9415 14.1294 15.9984 14.2543 15.9984 14.3987V15.4652H0.00195312V14.3987C0.00195312 14.2543 0.0588849 14.1294 0.172749 14.0238C0.286612 13.9183 0.421304 13.8655 0.576825 13.8655H15.4235Z" fill="#7F868D"/>
</g>
<defs>
<clipPath id="clip0_361_538">
<rect width="16" height="14.93" fill="white" transform="translate(0 0.535156)"/>
</clipPath>
</defs>
</svg>
