<svg width="17" height="18" viewBox="0 0 17 18" fill="none" xmlns="http://www.w3.org/2000/svg">
<g id="mdi:person">
<path id="Vector" d="M8.50065 3.33301C9.2521 3.33301 9.97277 3.63152 10.5041 4.16287C11.0355 4.69422 11.334 5.41489 11.334 6.16634C11.334 6.91779 11.0355 7.63846 10.5041 8.16981C9.97277 8.70116 9.2521 8.99967 8.50065 8.99967C7.7492 8.99967 7.02853 8.70116 6.49718 8.16981C5.96583 7.63846 5.66732 6.91779 5.66732 6.16634C5.66732 5.41489 5.96583 4.69422 6.49718 4.16287C7.02853 3.63152 7.7492 3.33301 8.50065 3.33301ZM8.50065 10.4163C11.6315 10.4163 14.1673 11.6843 14.1673 13.2497V14.6663H2.83398V13.2497C2.83398 11.6843 5.36982 10.4163 8.50065 10.4163Z" fill="#7F868D"/>
</g>
</svg>
