<svg width="21" height="20" viewBox="0 0 21 20" fill="none" xmlns="http://www.w3.org/2000/svg">
<g id="ic:baseline-pix">
<path id="Vector" d="M13.3745 13.7667L10.8661 11.2584C10.7745 11.1667 10.6661 11.1501 10.6078 11.1501C10.5495 11.1501 10.4411 11.1667 10.3495 11.2584L7.83281 13.7751C7.54948 14.0584 7.10781 14.5167 5.63281 14.5167L8.72448 17.6001C9.19323 18.0682 9.82864 18.3312 10.4911 18.3312C11.1536 18.3312 11.7891 18.0682 12.2578 17.6001L15.3578 14.5084C14.5995 14.5084 13.9661 14.3584 13.3745 13.7667ZM7.83281 6.22508L10.3495 8.74175C10.4161 8.80841 10.5161 8.85008 10.6078 8.85008C10.6995 8.85008 10.7995 8.80841 10.8661 8.74175L13.3578 6.25008C13.9495 5.63341 14.6245 5.49175 15.3828 5.49175L12.2828 2.40008C11.8141 1.93191 11.1786 1.66895 10.5161 1.66895C9.85364 1.66895 9.21823 1.93191 8.74948 2.40008L5.65781 5.48341C7.12448 5.48341 7.57448 5.96675 7.83281 6.22508Z" fill="#F5831F"/>
<path id="Vector_2" d="M18.0908 8.20859L16.2158 6.32526H15.1658C14.7158 6.32526 14.2658 6.50859 13.9574 6.83359L11.4574 9.33359C11.2241 9.56693 10.9158 9.68359 10.6074 9.68359C10.2899 9.67912 9.98603 9.55399 9.75744 9.33359L7.24077 6.80859C6.9241 6.49193 6.49077 6.30859 6.03244 6.30859H4.80744L2.8991 8.22526C2.43093 8.69401 2.16797 9.32942 2.16797 9.99193C2.16797 10.6544 2.43093 11.2898 2.8991 11.7586L4.80744 13.6753H6.04077C6.49077 13.6753 6.9241 13.4919 7.2491 13.1753L9.76577 10.6586C9.9991 10.4253 10.3074 10.3086 10.6158 10.3086C10.9241 10.3086 11.2324 10.4253 11.4658 10.6586L13.9741 13.1669C14.2908 13.4836 14.7241 13.6669 15.1824 13.6669H16.2324L18.1074 11.7836C18.5776 11.3064 18.8397 10.6625 18.8366 9.99266C18.8335 9.32278 18.5653 8.68138 18.0908 8.20859Z" fill="#F5831F"/>
</g>
</svg>
