<svg width="21" height="21" viewBox="0 0 21 21" fill="none" xmlns="http://www.w3.org/2000/svg">
<g id="akar-icons:info-fill">
<path id="Vector" fill-rule="evenodd" clip-rule="evenodd" d="M10.5 5C7.4625 5 5 7.4625 5 10.5C5 13.5375 7.4625 16 10.5 16C13.5375 16 16 13.5375 16 10.5C16 7.4625 13.5375 5 10.5 5ZM10.25 7.5C10.1174 7.5 9.99021 7.55268 9.89645 7.64645C9.80268 7.74021 9.75 7.86739 9.75 8C9.75 8.13261 9.80268 8.25979 9.89645 8.35355C9.99021 8.44732 10.1174 8.5 10.25 8.5H10.5C10.6326 8.5 10.7598 8.44732 10.8536 8.35355C10.9473 8.25979 11 8.13261 11 8C11 7.86739 10.9473 7.74021 10.8536 7.64645C10.7598 7.55268 10.6326 7.5 10.5 7.5H10.25ZM9.5 9.5C9.36739 9.5 9.24021 9.55268 9.14645 9.64645C9.05268 9.74021 9 9.86739 9 10C9 10.1326 9.05268 10.2598 9.14645 10.3536C9.24021 10.4473 9.36739 10.5 9.5 10.5H10V12H9.5C9.36739 12 9.24021 12.0527 9.14645 12.1464C9.05268 12.2402 9 12.3674 9 12.5C9 12.6326 9.05268 12.7598 9.14645 12.8536C9.24021 12.9473 9.36739 13 9.5 13H11.5C11.6326 13 11.7598 12.9473 11.8536 12.8536C11.9473 12.7598 12 12.6326 12 12.5C12 12.3674 11.9473 12.2402 11.8536 12.1464C11.7598 12.0527 11.6326 12 11.5 12H11V10C11 9.86739 10.9473 9.74021 10.8536 9.64645C10.7598 9.55268 10.6326 9.5 10.5 9.5H9.5Z" fill="#7F868D"/>
</g>
</svg>
