<svg width="40" height="40" viewBox="0 0 40 40" fill="none" xmlns="http://www.w3.org/2000/svg">
<path d="M20.5312 28.5315C20.2312 28.8315 19.8243 29 19.4 29C18.9757 29 18.5688 28.8315 18.2688 28.5315L11.0688 21.3315C10.7688 21.0315 10.6003 20.6246 10.6003 20.2003C10.6003 19.7761 10.7688 19.3692 11.0688 19.0691L18.2688 11.8691C18.5706 11.5777 18.9747 11.4164 19.3942 11.4201C19.8138 11.4237 20.2151 11.592 20.5117 11.8886C20.8084 12.1853 20.9766 12.5866 20.9803 13.0061C20.9839 13.4256 20.8227 13.8298 20.5312 14.1315L16.2 18.6003H31.4C31.8243 18.6003 32.2313 18.7689 32.5314 19.069C32.8314 19.369 33 19.776 33 20.2003C33 20.6247 32.8314 21.0317 32.5314 21.3317C32.2313 21.6318 31.8243 21.8003 31.4 21.8003H16.2L20.5312 26.2691C20.8312 26.5692 20.9997 26.9761 20.9997 27.4003C20.9997 27.8246 20.8312 28.2315 20.5312 28.5315Z" fill="#F5831F"/>
</svg>
