<svg width="48" height="48" viewBox="0 0 48 48" fill="none" xmlns="http://www.w3.org/2000/svg">
<g id="zondicons:calendar">
<rect width="48" height="48" fill="#F5831F"/>
<path id="Vector" d="M13 16.8C13 15.48 14.08 14.4 15.4 14.4H32.2C32.8365 14.4 33.447 14.6529 33.8971 15.1029C34.3471 15.553 34.6 16.1635 34.6 16.8V33.6C34.6 34.2365 34.3471 34.847 33.8971 35.2971C33.447 35.7471 32.8365 36 32.2 36H15.4C14.7635 36 14.153 35.7471 13.7029 35.2971C13.2529 34.847 13 34.2365 13 33.6V16.8ZM15.4 19.2V33.6H32.2V19.2H15.4ZM17.8 12H20.2V14.4H17.8V12ZM27.4 12H29.8V14.4H27.4V12ZM17.8 22.8H20.2V25.2H17.8V22.8ZM17.8 27.6H20.2V30H17.8V27.6ZM22.6 22.8H25V25.2H22.6V22.8ZM22.6 27.6H25V30H22.6V27.6ZM27.4 22.8H29.8V25.2H27.4V22.8ZM27.4 27.6H29.8V30H27.4V27.6Z" fill="#F9F9F9"/>
</g>
</svg>
