<svg width="24" height="24" viewBox="0 0 24 24" fill="none" xmlns="http://www.w3.org/2000/svg">
<g id="fluent:person-add-20-filled">
<path id="Vector" d="M10.8004 2.40039C9.52735 2.40039 8.30645 2.9061 7.40628 3.80628C6.5061 4.70645 6.00039 5.92735 6.00039 7.20039C6.00039 8.47343 6.5061 9.69433 7.40628 10.5945C8.30645 11.4947 9.52735 12.0004 10.8004 12.0004C12.0734 12.0004 13.2943 11.4947 14.1945 10.5945C15.0947 9.69433 15.6004 8.47343 15.6004 7.20039C15.6004 5.92735 15.0947 4.70645 14.1945 3.80628C13.2943 2.9061 12.0734 2.40039 10.8004 2.40039ZM4.81119 13.2004C4.49515 13.1991 4.18198 13.2603 3.88962 13.3803C3.59726 13.5003 3.33148 13.6769 3.1075 13.8999C2.88353 14.1228 2.70577 14.3878 2.58443 14.6796C2.46309 14.9715 2.40055 15.2844 2.40039 15.6004C2.40039 17.6296 3.39999 19.1596 4.96239 20.1568C6.50079 21.1372 8.57439 21.6004 10.8004 21.6004C11.2924 21.6004 11.7796 21.5776 12.2524 21.532C11.3103 20.3613 10.7978 18.9031 10.8004 17.4004C10.8004 15.8044 11.3668 14.3404 12.3088 13.2004H4.81239H4.81119ZM17.4004 22.8004C18.8326 22.8004 20.2061 22.2315 21.2188 21.2188C22.2315 20.2061 22.8004 18.8326 22.8004 17.4004C22.8004 15.9682 22.2315 14.5947 21.2188 13.582C20.2061 12.5693 18.8326 12.0004 17.4004 12.0004C15.9682 12.0004 14.5947 12.5693 13.582 13.582C12.5693 14.5947 12.0004 15.9682 12.0004 17.4004C12.0004 18.8326 12.5693 20.2061 13.582 21.2188C14.5947 22.2315 15.9682 22.8004 17.4004 22.8004ZM17.4004 14.4004C17.5595 14.4004 17.7121 14.4636 17.8247 14.5761C17.9372 14.6886 18.0004 14.8413 18.0004 15.0004V16.8004H19.8004C19.9595 16.8004 20.1121 16.8636 20.2247 16.9761C20.3372 17.0886 20.4004 17.2413 20.4004 17.4004C20.4004 17.5595 20.3372 17.7121 20.2247 17.8247C20.1121 17.9372 19.9595 18.0004 19.8004 18.0004H18.0004V19.8004C18.0004 19.9595 17.9372 20.1121 17.8247 20.2247C17.7121 20.3372 17.5595 20.4004 17.4004 20.4004C17.2413 20.4004 17.0886 20.3372 16.9761 20.2247C16.8636 20.1121 16.8004 19.9595 16.8004 19.8004V18.0004H15.0004C14.8413 18.0004 14.6886 17.9372 14.5761 17.8247C14.4636 17.7121 14.4004 17.5595 14.4004 17.4004C14.4004 17.2413 14.4636 17.0886 14.5761 16.9761C14.6886 16.8636 14.8413 16.8004 15.0004 16.8004H16.8004V15.0004C16.8004 14.8413 16.8636 14.6886 16.9761 14.5761C17.0886 14.4636 17.2413 14.4004 17.4004 14.4004Z" fill="#F9F9F9"/>
</g>
</svg>
