<svg width="17" height="30" viewBox="0 0 17 30" fill="none" xmlns="http://www.w3.org/2000/svg">
<g id="fontisto:shopping-pos-machine" clip-path="url(#clip0_525_4181)">
<path id="Vector" d="M1.74857 29.5716C1.28482 29.5716 0.840065 29.3873 0.512145 29.0594C0.184224 28.7315 0 28.2867 0 27.823L0 7.29671C0 6.33135 0.783214 5.54814 1.74857 5.54814H3.82014C3.88571 5.54814 3.94886 5.56393 4.0035 5.59185L4.00107 5.59064V0.632711C4.00107 0.519782 4.09214 0.428711 4.20507 0.428711H11.5151C11.628 0.428711 11.7191 0.519782 11.7191 0.632711V5.5615C11.7508 5.55358 11.7835 5.5495 11.8162 5.54935H13.6559C14.6212 5.54935 15.4044 6.33257 15.4044 7.29793V12.1927C15.4592 12.166 15.5195 12.1523 15.5805 12.1526H16.4997C16.7256 12.1526 16.9089 12.336 16.9089 12.5619V23.2136C16.9089 23.3221 16.8658 23.4262 16.7891 23.5029C16.7123 23.5797 16.6082 23.6228 16.4997 23.6228H15.5805C15.5186 23.623 15.4575 23.6089 15.402 23.5815L15.4044 23.5827V27.823C15.4044 28.2867 15.2202 28.7315 14.8923 29.0594C14.5644 29.3873 14.1196 29.5716 13.6559 29.5716H1.74857ZM10.642 25.6482V27.0252C10.6423 27.0795 10.664 27.1316 10.7025 27.17C10.7409 27.2084 10.7929 27.2301 10.8472 27.2304H12.4671C12.5214 27.2301 12.5734 27.2084 12.6118 27.17C12.6502 27.1316 12.672 27.0795 12.6723 27.0252V25.6482C12.672 25.594 12.6502 25.5421 12.6118 25.5039C12.5733 25.4657 12.5213 25.4442 12.4671 25.4442H10.8448C10.7907 25.4445 10.7388 25.4661 10.7005 25.5042C10.6621 25.5424 10.6402 25.5941 10.6396 25.6482H10.642ZM6.80971 25.6482V27.0252C6.81003 27.0795 6.83176 27.1316 6.87017 27.17C6.90859 27.2084 6.9606 27.2301 7.01493 27.2304H8.63357C8.6879 27.2301 8.73991 27.2084 8.77833 27.17C8.81674 27.1316 8.83847 27.0795 8.83879 27.0252V25.6482C8.83846 25.594 8.8167 25.5421 8.77825 25.5039C8.7398 25.4657 8.68779 25.4442 8.63357 25.4442H7.01371C6.95959 25.4445 6.90776 25.4661 6.86938 25.5042C6.831 25.5424 6.81035 25.5941 6.80971 25.6482ZM2.97743 25.6482V27.0264C2.97743 27.1394 3.0685 27.2304 3.18143 27.2304H4.80129C4.85561 27.2301 4.90763 27.2084 4.94604 27.17C4.98446 27.1316 5.00618 27.0795 5.0065 27.0252V25.6482C5.00618 25.594 4.98442 25.5421 4.94597 25.5039C4.90752 25.4657 4.8555 25.4442 4.80129 25.4442H3.18143C3.12732 25.4442 3.07544 25.4657 3.03718 25.504C2.99892 25.5422 2.97743 25.5941 2.97743 25.6482ZM10.6408 22.5263V23.9033C10.6411 23.9576 10.6628 24.0096 10.7012 24.048C10.7397 24.0865 10.7917 24.1082 10.846 24.1085H12.4659C12.5202 24.1082 12.5722 24.0865 12.6106 24.048C12.649 24.0096 12.6708 23.9576 12.6711 23.9033V22.5251C12.6711 22.471 12.6496 22.4191 12.6113 22.3808C12.5731 22.3426 12.5212 22.3211 12.4671 22.3211H10.8436C10.7895 22.3211 10.7376 22.3426 10.6993 22.3808C10.6611 22.4191 10.6396 22.471 10.6396 22.5251L10.6408 22.5263ZM6.8085 22.5263V23.9033C6.80882 23.9576 6.83054 24.0096 6.86896 24.048C6.90737 24.0865 6.95939 24.1082 7.01371 24.1085H8.63357C8.6879 24.1082 8.73991 24.0865 8.77833 24.048C8.81674 24.0096 8.83847 23.9576 8.83879 23.9033V22.5251C8.83879 22.471 8.81729 22.4191 8.77903 22.3808C8.74078 22.3426 8.68889 22.3211 8.63478 22.3211H7.0125C6.9584 22.3211 6.90651 22.3426 6.86825 22.3808C6.82999 22.4191 6.8085 22.4722 6.8085 22.5263ZM2.97621 22.5263V23.9045C2.97621 24.0174 3.06729 24.1085 3.18021 24.1085H4.80007C4.8544 24.1082 4.90641 24.0865 4.94483 24.048C4.98324 24.0096 5.00497 23.9576 5.00529 23.9033V22.5251C5.00529 22.471 4.98379 22.4191 4.94554 22.3808C4.90728 22.3426 4.85539 22.3211 4.80129 22.3211H3.18021C3.12611 22.3211 3.07422 22.3426 3.03596 22.3808C2.99771 22.4191 2.97621 22.4722 2.97621 22.5263ZM10.6396 19.4031V20.7814C10.6396 20.8943 10.7306 20.9854 10.8436 20.9854H12.4659C12.52 20.9854 12.5718 20.9639 12.6101 20.9256C12.6484 20.8873 12.6699 20.8355 12.6699 20.7814V19.4031C12.6695 19.3489 12.6478 19.297 12.6093 19.2588C12.5709 19.2206 12.5189 19.1991 12.4646 19.1991H10.8448C10.7907 19.1995 10.7388 19.221 10.7005 19.2592C10.6621 19.2973 10.6402 19.349 10.6396 19.4031ZM6.80729 19.4031V20.7814C6.80729 20.8943 6.89836 20.9854 7.01129 20.9854H8.63357C8.68768 20.9854 8.73956 20.9639 8.77782 20.9256C8.81608 20.8873 8.83757 20.8355 8.83757 20.7814V19.4031C8.83725 19.3489 8.81549 19.297 8.77704 19.2588C8.73859 19.2206 8.68657 19.1991 8.63236 19.1991H7.0125C6.95838 19.1995 6.90655 19.221 6.86817 19.2592C6.82978 19.2973 6.80792 19.349 6.80729 19.4031ZM2.975 19.4031V20.7814C2.975 20.8943 3.06607 20.9854 3.179 20.9854H4.80129C4.85539 20.9854 4.90728 20.9639 4.94554 20.9256C4.98379 20.8873 5.00529 20.8355 5.00529 20.7814V19.4031C5.00496 19.3489 4.9832 19.297 4.94475 19.2588C4.9063 19.2206 4.85429 19.1991 4.80007 19.1991H3.18021C3.12611 19.1991 3.07422 19.2206 3.03596 19.2589C2.99771 19.2971 2.975 19.349 2.975 19.4031ZM2.72 11.2516V17.2162C2.72 17.3291 2.81107 17.4202 2.924 17.4202H12.3493C12.4034 17.4202 12.4553 17.3987 12.4935 17.3605C12.5318 17.3222 12.5533 17.2703 12.5533 17.2162V11.2516C12.553 11.1973 12.5312 11.1453 12.4928 11.1069C12.4544 11.0685 12.4024 11.0467 12.3481 11.0464H2.92521C2.87089 11.0467 2.81887 11.0685 2.78046 11.1069C2.74204 11.1453 2.72032 11.1973 2.72 11.2516ZM2.108 7.99493V9.43993C2.108 9.77871 2.38243 10.0531 2.72121 10.0531H12.92C13.0826 10.0531 13.2386 9.98853 13.3536 9.87353C13.4686 9.75853 13.5332 9.60256 13.5332 9.43993V7.99493C13.5332 7.83229 13.4686 7.67632 13.3536 7.56132C13.2386 7.44632 13.0826 7.38171 12.92 7.38171H11.7179V8.60814H12.3104V8.82428H3.33443V8.60814H3.72421C3.82271 8.60813 3.91976 8.58438 4.00714 8.53893L4.0035 8.54014V7.44971C3.91684 7.40478 3.82061 7.38145 3.723 7.38171H2.71879C2.55636 7.38203 2.4007 7.44678 2.28596 7.56175C2.17122 7.67671 2.108 7.8325 2.108 7.99493Z" fill="#9BA0AC"/>
</g>
<defs>
<clipPath id="clip0_525_4181">
<rect width="17" height="29.1429" fill="white" transform="translate(0 0.428711)"/>
</clipPath>
</defs>
</svg>
