<svg width="24" height="24" viewBox="0 0 24 24" fill="none" xmlns="http://www.w3.org/2000/svg">
<g id="carbon:link">
<path id="Vector" d="M21.9368 5.06964C21.5188 4.65012 21.022 4.31726 20.475 4.09013C19.928 3.86301 19.3416 3.74609 18.7493 3.74609C18.1571 3.74609 17.5706 3.86301 17.0236 4.09013C16.4767 4.31726 15.9799 4.65012 15.5618 5.06964L16.6268 6.13464C16.9061 5.85542 17.2375 5.63393 17.6024 5.48281C17.9672 5.3317 18.3582 5.25392 18.7531 5.25392C19.148 5.25392 19.539 5.3317 19.9038 5.48281C20.2686 5.63393 20.6001 5.85542 20.8793 6.13464C21.1586 6.41387 21.38 6.74535 21.5312 7.11017C21.6823 7.475 21.7601 7.86601 21.7601 8.26089C21.7601 8.65577 21.6823 9.04679 21.5312 9.41161C21.38 9.77643 21.1586 10.1079 20.8793 10.3871L14.8793 16.3871C14.3164 16.9511 13.5525 17.2683 12.7557 17.269C11.9589 17.2697 11.1945 16.9538 10.6306 16.3909C10.0667 15.828 9.74946 15.0641 9.74876 14.2673C9.74806 13.4705 10.0639 12.7061 10.6268 12.1421L11.6843 11.0771L10.6268 10.0121L9.56183 11.0771C9.14231 11.4952 8.80944 11.992 8.58232 12.539C8.3552 13.0859 8.23828 13.6724 8.23828 14.2646C8.23828 14.8569 8.3552 15.4433 8.58232 15.9903C8.80944 16.5373 9.14231 17.0341 9.56183 17.4521C10.4104 18.2899 11.5569 18.7566 12.7493 18.7496C13.3439 18.7521 13.933 18.6367 14.4827 18.4101C15.0324 18.1836 15.5317 17.8503 15.9518 17.4296L21.9518 11.4296C22.7925 10.5839 23.2632 9.43904 23.2604 8.24654C23.2576 7.05403 22.7815 5.91141 21.9368 5.06964Z" fill="#F5831F"/>
<path id="Vector_2" d="M3.14333 18.6149C2.86328 18.3361 2.64105 18.0048 2.48941 17.6399C2.33777 17.275 2.25971 16.8838 2.25971 16.4886C2.25971 16.0935 2.33777 15.7022 2.48941 15.3373C2.64105 14.9725 2.86328 14.6411 3.14333 14.3624L9.14333 8.36237C9.42209 8.08231 9.75342 7.86008 10.1183 7.70844C10.4832 7.55681 10.8744 7.47875 11.2696 7.47875C11.6647 7.47875 12.056 7.55681 12.4209 7.70844C12.7857 7.86008 13.1171 8.08231 13.3958 8.36237C13.6741 8.64332 13.8932 8.97727 14.04 9.34443C14.1869 9.71159 14.2586 10.1045 14.2508 10.4999C14.2531 10.8965 14.1767 11.2896 14.0261 11.6565C13.8755 12.0234 13.6536 12.3568 13.3733 12.6374L11.7833 14.2499L12.8483 15.3149L14.4383 13.7249C15.2847 12.8785 15.7602 11.7306 15.7602 10.5336C15.7602 9.33667 15.2847 8.18874 14.4383 7.34237C13.592 6.49599 12.444 6.02051 11.2471 6.02051C10.0501 6.02051 8.9022 6.49599 8.05583 7.34237L2.05583 13.3424C1.63518 13.7606 1.30136 14.2578 1.07357 14.8055C0.845783 15.3532 0.728516 15.9405 0.728516 16.5336C0.728516 17.1268 0.845783 17.7141 1.07357 18.2618C1.30136 18.8094 1.63518 19.3067 2.05583 19.7249C2.90995 20.5562 4.059 21.0148 5.25083 20.9999C6.45316 21.001 7.60712 20.5265 8.46083 19.6799L7.39583 18.6149C7.11708 18.8949 6.78574 19.1172 6.42086 19.2688C6.05597 19.4204 5.66472 19.4985 5.26958 19.4985C4.87444 19.4985 4.48319 19.4204 4.11831 19.2688C3.75342 19.1172 3.42209 18.8949 3.14333 18.6149Z" fill="#F5831F"/>
</g>
</svg>
