<svg width="30" height="30" viewBox="0 0 30 30" fill="none" xmlns="http://www.w3.org/2000/svg">
<g id="mi:filter">
<path id="Vector" d="M11.25 6.24916C10.9185 6.24916 10.6005 6.38085 10.3661 6.61527C10.1317 6.84969 10 7.16764 10 7.49916C10 7.83068 10.1317 8.14862 10.3661 8.38304C10.6005 8.61746 10.9185 8.74916 11.25 8.74916C11.5815 8.74916 11.8995 8.61746 12.1339 8.38304C12.3683 8.14862 12.5 7.83068 12.5 7.49916C12.5 7.16764 12.3683 6.84969 12.1339 6.61527C11.8995 6.38085 11.5815 6.24916 11.25 6.24916ZM7.7125 6.24916C7.97075 5.51724 8.44967 4.88345 9.08325 4.43514C9.71683 3.98684 10.4739 3.74609 11.25 3.74609C12.0261 3.74609 12.7832 3.98684 13.4167 4.43514C14.0503 4.88345 14.5292 5.51724 14.7875 6.24916H26.75C27.0815 6.24916 27.3995 6.38085 27.6339 6.61527C27.8683 6.84969 28 7.16764 28 7.49916C28 7.83068 27.8683 8.14862 27.6339 8.38304C27.3995 8.61746 27.0815 8.74916 26.75 8.74916H14.7875C14.5292 9.48107 14.0503 10.1149 13.4167 10.5632C12.7832 11.0115 12.0261 11.2522 11.25 11.2522C10.4739 11.2522 9.71683 11.0115 9.08325 10.5632C8.44967 10.1149 7.97075 9.48107 7.7125 8.74916H6.25C5.91848 8.74916 5.60054 8.61746 5.36612 8.38304C5.1317 8.14862 5 7.83068 5 7.49916C5 7.16764 5.1317 6.84969 5.36612 6.61527C5.60054 6.38085 5.91848 6.24916 6.25 6.24916H7.7125ZM21.75 13.7492C21.4185 13.7492 21.1005 13.8809 20.8661 14.1153C20.6317 14.3497 20.5 14.6676 20.5 14.9992C20.5 15.3307 20.6317 15.6486 20.8661 15.883C21.1005 16.1175 21.4185 16.2492 21.75 16.2492C22.0815 16.2492 22.3995 16.1175 22.6339 15.883C22.8683 15.6486 23 15.3307 23 14.9992C23 14.6676 22.8683 14.3497 22.6339 14.1153C22.3995 13.8809 22.0815 13.7492 21.75 13.7492ZM18.2125 13.7492C18.4708 13.0172 18.9497 12.3834 19.5833 11.9351C20.2168 11.4868 20.9739 11.2461 21.75 11.2461C22.5261 11.2461 23.2832 11.4868 23.9167 11.9351C24.5503 12.3834 25.0292 13.0172 25.2875 13.7492H26.75C27.0815 13.7492 27.3995 13.8809 27.6339 14.1153C27.8683 14.3497 28 14.6676 28 14.9992C28 15.3307 27.8683 15.6486 27.6339 15.883C27.3995 16.1175 27.0815 16.2492 26.75 16.2492H25.2875C25.0292 16.9811 24.5503 17.6149 23.9167 18.0632C23.2832 18.5115 22.5261 18.7522 21.75 18.7522C20.9739 18.7522 20.2168 18.5115 19.5833 18.0632C18.9497 17.6149 18.4708 16.9811 18.2125 16.2492H6.25C5.91848 16.2492 5.60054 16.1175 5.36612 15.883C5.1317 15.6486 5 15.3307 5 14.9992C5 14.6676 5.1317 14.3497 5.36612 14.1153C5.60054 13.8809 5.91848 13.7492 6.25 13.7492H18.2125ZM11.25 21.2492C10.9185 21.2492 10.6005 21.3809 10.3661 21.6153C10.1317 21.8497 10 22.1676 10 22.4992C10 22.8307 10.1317 23.1486 10.3661 23.383C10.6005 23.6175 10.9185 23.7492 11.25 23.7492C11.5815 23.7492 11.8995 23.6175 12.1339 23.383C12.3683 23.1486 12.5 22.8307 12.5 22.4992C12.5 22.1676 12.3683 21.8497 12.1339 21.6153C11.8995 21.3809 11.5815 21.2492 11.25 21.2492ZM7.7125 21.2492C7.97075 20.5172 8.44967 19.8834 9.08325 19.4351C9.71683 18.9868 10.4739 18.7461 11.25 18.7461C12.0261 18.7461 12.7832 18.9868 13.4167 19.4351C14.0503 19.8834 14.5292 20.5172 14.7875 21.2492H26.75C27.0815 21.2492 27.3995 21.3809 27.6339 21.6153C27.8683 21.8497 28 22.1676 28 22.4992C28 22.8307 27.8683 23.1486 27.6339 23.383C27.3995 23.6175 27.0815 23.7492 26.75 23.7492H14.7875C14.5292 24.4811 14.0503 25.1149 13.4167 25.5632C12.7832 26.0115 12.0261 26.2522 11.25 26.2522C10.4739 26.2522 9.71683 26.0115 9.08325 25.5632C8.44967 25.1149 7.97075 24.4811 7.7125 23.7492H6.25C5.91848 23.7492 5.60054 23.6175 5.36612 23.383C5.1317 23.1486 5 22.8307 5 22.4992C5 22.1676 5.1317 21.8497 5.36612 21.6153C5.60054 21.3809 5.91848 21.2492 6.25 21.2492H7.7125Z" fill="#7F868D"/>
</g>
</svg>
