<svg width="63" height="63" viewBox="0 0 63 63" fill="none" xmlns="http://www.w3.org/2000/svg">
<g id="solar:user-check-broken">
<g id="Group">
<path id="Vector" d="M28.875 26.25C34.674 26.25 39.375 21.549 39.375 15.75C39.375 9.95101 34.674 5.25 28.875 5.25C23.076 5.25 18.375 9.95101 18.375 15.75C18.375 21.549 23.076 26.25 28.875 26.25Z" stroke="#F5831F" stroke-width="4"/>
<path id="Vector_2" d="M44.625 27.0375L48.1241 30.1875L55.125 22.3125" stroke="#F5831F" stroke-width="4" stroke-linecap="round" stroke-linejoin="round"/>
<path id="Vector_3" d="M49.8671 47.25C49.875 46.8195 49.875 46.3811 49.875 45.9375C49.875 39.4144 40.4723 34.125 28.875 34.125C17.2777 34.125 7.875 39.4144 7.875 45.9375C7.875 52.4606 7.875 57.75 28.875 57.75C34.7314 57.75 38.955 57.3379 42 56.6029" stroke="#F5831F" stroke-width="4" stroke-linecap="round"/>
</g>
</g>
</svg>
