<svg width="16" height="18" viewBox="0 0 16 18" fill="none" xmlns="http://www.w3.org/2000/svg">
<g id="tabler:hand-click" clip-path="url(#clip0_376_1302)">
<g id="Group">
<path id="Vector" d="M6.22075 10.834L3.93468 5.28657C3.82768 5.02694 3.82821 4.73543 3.93614 4.47619C4.04407 4.21694 4.25057 4.01119 4.51021 3.90419C4.76984 3.7972 5.06135 3.79772 5.32059 3.90566C5.57984 4.01359 5.78559 4.22009 5.89259 4.47972L7.90972 9.3745M7.77524 9.04818L7.23734 7.74291C7.13034 7.48327 7.13087 7.19177 7.2388 6.93252C7.34674 6.67328 7.55323 6.46752 7.81287 6.36053C8.07251 6.25353 8.36401 6.25406 8.62326 6.36199C8.8825 6.46993 9.08826 6.67642 9.19525 6.93606L9.86763 8.56765M9.4642 7.5887C9.35721 7.32906 9.35773 7.03756 9.46567 6.77831C9.5736 6.51906 9.7801 6.31331 10.0397 6.20631C10.2994 6.09932 10.5909 6.09985 10.8501 6.20778C11.1094 6.31571 11.3151 6.52221 11.4221 6.78185L11.8255 7.7608" stroke="#7F868D" stroke-linecap="round" stroke-linejoin="round"/>
<path id="Vector_2" d="M11.692 7.43475C11.585 7.17512 11.5855 6.88361 11.6934 6.62436C11.8014 6.36512 12.0078 6.15937 12.2675 6.05237C12.5271 5.94538 12.8186 5.9459 13.0779 6.05383C13.3371 6.16177 13.5429 6.36827 13.6499 6.6279L14.8601 9.56477C15.2881 10.6033 15.286 11.7693 14.8543 12.8063C14.4226 13.8433 13.5966 14.6663 12.558 15.0943L11.2527 15.6322L11.3885 15.5763C10.74 15.8436 10.0353 15.9457 9.33765 15.8734C8.63998 15.8012 7.97118 15.5567 7.39131 15.1621L7.1827 15.019C6.85025 14.7903 5.62219 13.839 3.49759 12.1645C3.28101 11.9938 3.13956 11.7454 3.10333 11.472C3.0671 11.1986 3.13895 10.9219 3.30359 10.7007C3.47891 10.465 3.72797 10.2946 4.01121 10.2166C4.29445 10.1386 4.59563 10.1575 4.86691 10.2702L6.22164 10.8343M1.57423 5.11474L0.652637 4.73105M1.99739 7.99424L1.34475 8.26319M7.44796 2.69418L7.83165 1.7726M8.90745 4.38315L9.56009 4.1142" stroke="#7F868D" stroke-linecap="round" stroke-linejoin="round"/>
</g>
</g>
<defs>
<clipPath id="clip0_376_1302">
<rect width="16" height="18" fill="white"/>
</clipPath>
</defs>
</svg>
