<svg width="63" height="63" viewBox="0 0 63 63" fill="none" xmlns="http://www.w3.org/2000/svg">
<g id="tabler:progress-x">
<path id="Vector" d="M26.2507 54.5392C23.9659 54.021 21.7716 53.1636 19.7407 51.9956M36.7507 8.45996C41.9696 9.6519 46.6292 12.5804 49.9666 16.766C53.3041 20.9516 55.1216 26.1463 55.1216 31.4996C55.1216 36.8529 53.3041 42.0476 49.9666 46.2332C46.6292 50.4188 41.9696 53.3473 36.7507 54.5392M12.0205 44.8687C10.5886 42.7883 9.50107 40.4909 8.79967 38.0647M8.20117 27.5621C8.62117 25.0683 9.42967 22.7058 10.5637 20.5402L11.0073 19.7396M18.1315 12.0195C20.5876 10.3287 23.343 9.12072 26.2507 8.45996M36.7507 36.7496L26.2507 26.2496M26.2507 36.7496L36.7507 26.2496" stroke="#D61212" stroke-width="4" stroke-linecap="round" stroke-linejoin="round"/>
</g>
</svg>
