<svg width="24" height="24" viewBox="0 0 24 24" fill="none" xmlns="http://www.w3.org/2000/svg">
<g id="octicon:upload-16">
<path id="Vector" d="M4.125 21C3.42881 21 2.76113 20.7234 2.26884 20.2312C1.77656 19.7389 1.5 19.0712 1.5 18.375V14.625C1.5 14.3266 1.61853 14.0405 1.8295 13.8295C2.04048 13.6185 2.32663 13.5 2.625 13.5C2.92337 13.5 3.20952 13.6185 3.4205 13.8295C3.63147 14.0405 3.75 14.3266 3.75 14.625V18.375C3.75 18.582 3.918 18.75 4.125 18.75H19.875C19.9745 18.75 20.0698 18.7105 20.1402 18.6402C20.2105 18.5698 20.25 18.4745 20.25 18.375V14.625C20.25 14.3266 20.3685 14.0405 20.5795 13.8295C20.7905 13.6185 21.0766 13.5 21.375 13.5C21.6734 13.5 21.9595 13.6185 22.1705 13.8295C22.3815 14.0405 22.5 14.3266 22.5 14.625V18.375C22.5 19.0712 22.2234 19.7389 21.7312 20.2312C21.2389 20.7234 20.5712 21 19.875 21H4.125Z" fill="#F9F9F9"/>
<path id="Vector_2" d="M17.6693 7.07963C17.7737 7.18403 17.8565 7.30797 17.913 7.44438C17.9695 7.58079 17.9986 7.72699 17.9986 7.87463C17.9986 8.02228 17.9695 8.16848 17.913 8.30488C17.8565 8.44129 17.7737 8.56523 17.6693 8.66963C17.5649 8.77403 17.441 8.85685 17.3046 8.91335C17.1681 8.96985 17.0219 8.99893 16.8743 8.99893C16.7267 8.99893 16.5805 8.96985 16.444 8.91335C16.3076 8.85685 16.1837 8.77403 16.0793 8.66963L13.1243 5.71613V14.2496C13.1243 14.548 13.0058 14.8341 12.7948 15.0451C12.5838 15.2561 12.2977 15.3746 11.9993 15.3746C11.7009 15.3746 11.4148 15.2561 11.2038 15.0451C10.9928 14.8341 10.8743 14.548 10.8743 14.2496V5.71613L7.9193 8.66963C7.8149 8.77403 7.69096 8.85685 7.55455 8.91335C7.41814 8.96985 7.27194 8.99893 7.1243 8.99893C6.97665 8.99893 6.83046 8.96985 6.69405 8.91335C6.55764 8.85685 6.4337 8.77403 6.3293 8.66963C6.2249 8.56523 6.14208 8.44129 6.08558 8.30488C6.02908 8.16848 6 8.02228 6 7.87463C6 7.72699 6.02908 7.58079 6.08558 7.44438C6.14208 7.30797 6.2249 7.18403 6.3293 7.07963L11.2043 2.20463C11.3086 2.10014 11.4326 2.01724 11.569 1.96067C11.7054 1.90411 11.8516 1.875 11.9993 1.875C12.147 1.875 12.2932 1.90411 12.4296 1.96067C12.566 2.01724 12.69 2.10014 12.7943 2.20463L17.6693 7.07963Z" fill="#F9F9F9"/>
</g>
</svg>
