<svg width="48" height="48" viewBox="0 0 48 48" fill="none" xmlns="http://www.w3.org/2000/svg">
<path d="M0 24C0 10.7452 10.7452 0 24 0C37.2548 0 48 10.7452 48 24C48 37.2548 37.2548 48 24 48C10.7452 48 0 37.2548 0 24Z" fill="#F5831F"/>
<path d="M29.25 24C29.8467 24 30.419 24.2371 30.841 24.659C31.2629 25.081 31.5 25.6533 31.5 26.25V27C31.5 29.9565 28.71 33 24 33C19.29 33 16.5 29.9565 16.5 27V26.25C16.5 25.6533 16.7371 25.081 17.159 24.659C17.581 24.2371 18.1533 24 18.75 24H29.25ZM29.25 25.5H18.75C18.5511 25.5 18.3603 25.579 18.2197 25.7197C18.079 25.8603 18 26.0511 18 26.25V27C18 29.157 20.148 31.5 24 31.5C27.852 31.5 30 29.157 30 27V26.25C30 26.0511 29.921 25.8603 29.7803 25.7197C29.6397 25.579 29.4489 25.5 29.25 25.5ZM24 14.25C25.094 14.25 26.1432 14.6846 26.9168 15.4582C27.6904 16.2318 28.125 17.281 28.125 18.375C28.125 19.469 27.6904 20.5182 26.9168 21.2918C26.1432 22.0654 25.094 22.5 24 22.5C22.906 22.5 21.8568 22.0654 21.0832 21.2918C20.3096 20.5182 19.875 19.469 19.875 18.375C19.875 17.281 20.3096 16.2318 21.0832 15.4582C21.8568 14.6846 22.906 14.25 24 14.25ZM24 15.75C23.3038 15.75 22.6361 16.0266 22.1438 16.5188C21.6516 17.0111 21.375 17.6788 21.375 18.375C21.375 19.0712 21.6516 19.7389 22.1438 20.2312C22.6361 20.7234 23.3038 21 24 21C24.6962 21 25.3639 20.7234 25.8562 20.2312C26.3484 19.7389 26.625 19.0712 26.625 18.375C26.625 17.6788 26.3484 17.0111 25.8562 16.5188C25.3639 16.0266 24.6962 15.75 24 15.75Z" fill="#F9F9F9"/>
</svg>
