<svg width="10" height="10" viewBox="0 0 10 10" fill="none" xmlns="http://www.w3.org/2000/svg">
<g id="vaadin:connect" clip-path="url(#clip0_333_478)">
<path id="Vector" d="M7.5 6.25C7 6.25 6.625 6.4375 6.25 6.75L4.25 5.625C4.3125 5.4375 4.375 5.1875 4.375 5C4.375 4.8125 4.3125 4.5625 4.25 4.375L6.25 3.25C6.625 3.5625 7 3.75 7.5 3.75C8.5625 3.75 9.375 2.9375 9.375 1.875C9.375 0.8125 8.5625 0 7.5 0C6.4375 0 5.625 0.8125 5.625 1.875V2.1875L3.4375 3.375C3.1875 3.25 2.875 3.125 2.5 3.125C1.5 3.125 0.625 3.9375 0.625 5C0.625 6 1.5 6.875 2.5 6.875C2.875 6.875 3.1875 6.75 3.4375 6.625L5.625 7.8125V8.125C5.625 9.1875 6.4375 10 7.5 10C8.5625 10 9.375 9.1875 9.375 8.125C9.375 7.0625 8.5625 6.25 7.5 6.25Z" fill="black"/>
</g>
<defs>
<clipPath id="clip0_333_478">
<rect width="10" height="10" fill="white"/>
</clipPath>
</defs>
</svg>
