<svg width="16" height="16" viewBox="0 0 16 16" fill="none" xmlns="http://www.w3.org/2000/svg">
<g id="octicon:x-12">
<path id="Vector" d="M2.96097 2.96C3.05373 2.86711 3.16388 2.79342 3.28514 2.74315C3.4064 2.69287 3.53637 2.66699 3.66764 2.66699C3.79891 2.66699 3.92889 2.69287 4.05014 2.74315C4.1714 2.79342 4.28155 2.86711 4.37431 2.96L8.00097 6.58533L11.6276 2.96C11.7204 2.8672 11.8306 2.79358 11.9519 2.74336C12.0731 2.69314 12.2031 2.66729 12.3343 2.66729C12.4655 2.66729 12.5955 2.69314 12.7168 2.74336C12.838 2.79358 12.9482 2.8672 13.041 2.96C13.1338 3.0528 13.2074 3.16297 13.2576 3.28422C13.3078 3.40547 13.3337 3.53542 13.3337 3.66666C13.3337 3.7979 13.3078 3.92786 13.2576 4.04911C13.2074 4.17036 13.1338 4.28053 13.041 4.37333L9.41564 8L13.041 11.6267C13.2284 11.8141 13.3337 12.0683 13.3337 12.3333C13.3337 12.5984 13.2284 12.8526 13.041 13.04C12.8536 13.2274 12.5994 13.3327 12.3343 13.3327C12.0693 13.3327 11.8151 13.2274 11.6276 13.04L8.00097 9.41466L4.37431 13.04C4.18689 13.2274 3.93269 13.3327 3.66764 13.3327C3.40259 13.3327 3.14839 13.2274 2.96097 13.04C2.77356 12.8526 2.66826 12.5984 2.66826 12.3333C2.66826 12.0683 2.77356 11.8141 2.96097 11.6267L6.58631 8L2.96097 4.37333C2.86809 4.28058 2.7944 4.17042 2.74412 4.04917C2.69385 3.92791 2.66797 3.79793 2.66797 3.66666C2.66797 3.5354 2.69385 3.40542 2.74412 3.28416C2.7944 3.16291 2.86809 3.05275 2.96097 2.96Z" fill="white"/>
</g>
</svg>
