<svg width="24" height="24" viewBox="0 0 24 24" fill="none" xmlns="http://www.w3.org/2000/svg">
<g id="solar:chat-round-money-broken">
<g id="Group">
<path id="Vector" d="M12 15.333C13.105 15.333 14 14.587 14 13.667C14 12.747 13.105 12 12 12C10.895 12 10 11.254 10 10.333C10 9.413 10.895 8.667 12 8.667M12 15.333C10.895 15.333 10 14.587 10 13.667M12 15.333V16M12 8.667V8M12 8.667C13.105 8.667 14 9.413 14 10.333" stroke="#F5831F" stroke-width="1.5" stroke-linecap="round"/>
<path id="Vector_2" d="M17 3.33801C15.4805 2.45891 13.7555 1.99731 12 2.00001C6.477 2.00001 2 6.47701 2 12C2 13.6 2.376 15.112 3.043 16.453C3.221 16.809 3.28 17.216 3.177 17.601L2.582 19.827C2.52329 20.0472 2.52351 20.279 2.58264 20.4991C2.64177 20.7193 2.75773 20.92 2.91889 21.0811C3.08005 21.2423 3.28075 21.3582 3.50087 21.4174C3.72098 21.4765 3.95277 21.4767 4.173 21.418L6.399 20.823C6.78541 20.7258 7.19403 20.7731 7.548 20.956C8.93092 21.6446 10.4551 22.0021 12 22C17.523 22 22 17.523 22 12C22 10.179 21.513 8.47001 20.662 7.00001" stroke="#F5831F" stroke-width="1.5" stroke-linecap="round"/>
</g>
</g>
</svg>
