<svg width="256" height="256" viewBox="0 0 256 256" fill="none" xmlns="http://www.w3.org/2000/svg">
<g id="wpf:qr-code" clip-path="url(#clip0_474_1023)">
<path id="Vector" d="M0 0V88.6154H88.6154V0H0ZM108.308 0V19.6923H128V0H108.308ZM128 19.6923V39.3846H108.308V78.7692H128V59.0769H147.692V19.6923H128ZM128 78.7692V108.308H39.3846V128H19.6923V147.692H59.0769V128H78.7692V147.692H128V128H147.692V147.692H177.231V128H196.923V108.308H147.692V78.7692H128ZM196.923 128V147.692H256V128H236.308V108.308H216.615V128H196.923ZM19.6923 128V108.308H0V128H19.6923ZM167.385 0V88.6154H256V0H167.385ZM19.6923 19.6923H68.9231V68.9231H19.6923V19.6923ZM187.077 19.6923H236.308V68.9231H187.077V19.6923ZM29.5385 29.5385V59.0769H59.0769V29.5385H29.5385ZM196.923 29.5385V59.0769H226.462V29.5385H196.923ZM108.308 157.538V177.231H128V157.538H108.308ZM128 177.231V196.923H108.308V236.308H128V216.615H167.385V196.923H187.077V177.231H206.769V196.923H187.077V216.615H167.385V256H187.077V236.308H206.769V216.615H216.615V236.308H206.769V256H226.462V236.308H236.308V216.615H256V177.231H236.308V157.538H167.385V177.231H128ZM236.308 236.308V256H256V236.308H236.308ZM128 236.308V256H147.692V236.308H128ZM0 167.385V256H88.6154V167.385H0ZM19.6923 187.077H68.9231V236.308H19.6923V187.077ZM29.5385 196.923V226.462H59.0769V196.923H29.5385Z" fill="#333132"/>
</g>
<defs>
<clipPath id="clip0_474_1023">
<rect width="256" height="256" fill="white"/>
</clipPath>
</defs>
</svg>
