<svg width="25" height="24" viewBox="0 0 25 24" fill="none" xmlns="http://www.w3.org/2000/svg">
<g id="ic_coin">
<g id="Group">
<path id="Vector" d="M12.5 22C18.023 22 22.5 17.523 22.5 12C22.5 6.477 18.023 2 12.5 2C6.977 2 2.5 6.477 2.5 12C2.5 17.523 6.977 22 12.5 22Z" stroke="#333132" stroke-width="1.5" stroke-linecap="round" stroke-linejoin="round"/>
<path id="Vector_2" d="M15.5 8.5C14.815 7.815 13.609 7.339 12.5 7.309M12.5 7.309C11.18 7.273 10 7.87 10 9.5C10 12.5 15.5 11 15.5 14C15.5 15.711 14.036 16.446 12.5 16.391M12.5 7.309V5.5M9.5 15C10.144 15.86 11.343 16.35 12.5 16.391M12.5 16.391V18.5" stroke="#333132" stroke-width="1.5" stroke-linecap="round" stroke-linejoin="round"/>
</g>
</g>
</svg>
