<svg width="25" height="24" viewBox="0 0 25 24" fill="none" xmlns="http://www.w3.org/2000/svg">
<g id="basil:invoice-outline">
<path id="Vector" d="M14 9.25C14 9.05109 13.921 8.86032 13.7803 8.71967C13.6397 8.57902 13.4489 8.5 13.25 8.5H7.25C7.05109 8.5 6.86032 8.57902 6.71967 8.71967C6.57902 8.86032 6.5 9.05109 6.5 9.25C6.5 9.44891 6.57902 9.63968 6.71967 9.78033C6.86032 9.92098 7.05109 10 7.25 10H13.25C13.4489 10 13.6397 9.92098 13.7803 9.78033C13.921 9.63968 14 9.44891 14 9.25ZM13 12.25C13 12.0511 12.921 11.8603 12.7803 11.7197C12.6397 11.579 12.4489 11.5 12.25 11.5H7.25C7.05109 11.5 6.86032 11.579 6.71967 11.7197C6.57902 11.8603 6.5 12.0511 6.5 12.25C6.5 12.4489 6.57902 12.6397 6.71967 12.7803C6.86032 12.921 7.05109 13 7.25 13H12.25C12.4489 13 12.6397 12.921 12.7803 12.7803C12.921 12.6397 13 12.4489 13 12.25ZM13.25 14.5C13.4489 14.5 13.6397 14.579 13.7803 14.7197C13.921 14.8603 14 15.0511 14 15.25C14 15.4489 13.921 15.6397 13.7803 15.7803C13.6397 15.921 13.4489 16 13.25 16H7.25C7.05109 16 6.86032 15.921 6.71967 15.7803C6.57902 15.6397 6.5 15.4489 6.5 15.25C6.5 15.0511 6.57902 14.8603 6.71967 14.7197C6.86032 14.579 7.05109 14.5 7.25 14.5H13.25Z" fill="#333132"/>
<path id="Vector_2" fill-rule="evenodd" clip-rule="evenodd" d="M6.5 21.2499H19.5C20.2293 21.2499 20.9288 20.9601 21.4445 20.4444C21.9603 19.9287 22.25 19.2292 22.25 18.4999V12.9999C22.25 12.801 22.171 12.6102 22.0303 12.4695C21.8897 12.3289 21.6989 12.2499 21.5 12.2499H18.25V4.44287C18.25 3.01987 16.641 2.19188 15.483 3.01888L15.308 3.14388C14.9248 3.4159 14.4663 3.5617 13.9964 3.56099C13.5264 3.56027 13.0684 3.41307 12.686 3.13988C12.0476 2.68554 11.2835 2.44141 10.5 2.44141C9.71645 2.44141 8.95238 2.68554 8.314 3.13988C7.93162 3.41307 7.47359 3.56027 7.00364 3.56099C6.53369 3.5617 6.07521 3.4159 5.692 3.14388L5.517 3.01888C4.359 2.19188 2.75 3.01887 2.75 4.44287V17.4999C2.75 18.4944 3.14509 19.4483 3.84835 20.1515C4.55161 20.8548 5.50544 21.2499 6.5 21.2499ZM9.186 4.35988C9.56995 4.08732 10.0291 3.9409 10.5 3.9409C10.9709 3.9409 11.4301 4.08732 11.814 4.35988C12.4507 4.81499 13.2136 5.06009 13.9962 5.06099C14.7788 5.06188 15.5423 4.81853 16.18 4.36487L16.355 4.23987C16.3923 4.21328 16.4363 4.19747 16.482 4.19418C16.5277 4.19088 16.5735 4.20022 16.6143 4.22117C16.6551 4.24213 16.6893 4.2739 16.7132 4.313C16.7372 4.3521 16.7499 4.39703 16.75 4.44287V18.4999C16.75 18.9499 16.858 19.3749 17.05 19.7499H6.5C5.90326 19.7499 5.33097 19.5128 4.90901 19.0909C4.48705 18.6689 4.25 18.0966 4.25 17.4999V4.44287C4.25012 4.39703 4.26284 4.3521 4.28678 4.313C4.31072 4.2739 4.34495 4.24213 4.38573 4.22117C4.4265 4.20022 4.47226 4.19088 4.51798 4.19418C4.56371 4.19747 4.60765 4.21328 4.645 4.23987L4.82 4.36487C5.45775 4.81853 6.22116 5.06188 7.0038 5.06099C7.78644 5.06009 8.54929 4.81499 9.186 4.35988ZM18.25 18.4999V13.7499H20.75V18.4999C20.75 18.8314 20.6183 19.1493 20.3839 19.3838C20.1495 19.6182 19.8315 19.7499 19.5 19.7499C19.1685 19.7499 18.8505 19.6182 18.6161 19.3838C18.3817 19.1493 18.25 18.8314 18.25 18.4999Z" fill="#333132"/>
</g>
</svg>
