<svg width="25" height="24" viewBox="0 0 25 24" fill="none" xmlns="http://www.w3.org/2000/svg">
<g id="ic_profile">
<path id="Vector" d="M16 12C16.3978 12 16.7794 12.158 17.0607 12.4393C17.342 12.7206 17.5 13.1022 17.5 13.5V14C17.5 15.971 15.64 18 12.5 18C9.36 18 7.5 15.971 7.5 14V13.5C7.5 13.1022 7.65804 12.7206 7.93934 12.4393C8.22064 12.158 8.60218 12 9 12H16ZM12.5 5.5C13.2293 5.5 13.9288 5.78973 14.4445 6.30546C14.9603 6.82118 15.25 7.52065 15.25 8.25C15.25 8.97935 14.9603 9.67882 14.4445 10.1945C13.9288 10.7103 13.2293 11 12.5 11C11.7707 11 11.0712 10.7103 10.5555 10.1945C10.0397 9.67882 9.75 8.97935 9.75 8.25C9.75 7.52065 10.0397 6.82118 10.5555 6.30546C11.0712 5.78973 11.7707 5.5 12.5 5.5ZM6.75 3C5.88805 3 5.0614 3.34241 4.4519 3.9519C3.84241 4.5614 3.5 5.38805 3.5 6.25V17.75C3.5 18.612 3.84241 19.4386 4.4519 20.0481C5.0614 20.6576 5.88805 21 6.75 21H18.25C19.112 21 19.9386 20.6576 20.5481 20.0481C21.1576 19.4386 21.5 18.612 21.5 17.75V6.25C21.5 5.38805 21.1576 4.5614 20.5481 3.9519C19.9386 3.34241 19.112 3 18.25 3H6.75ZM5 6.25C5 5.284 5.784 4.5 6.75 4.5H18.25C19.216 4.5 20 5.284 20 6.25V17.75C20 18.2141 19.8156 18.6592 19.4874 18.9874C19.1592 19.3156 18.7141 19.5 18.25 19.5H6.75C6.28587 19.5 5.84075 19.3156 5.51256 18.9874C5.18437 18.6592 5 18.2141 5 17.75V6.25Z" fill="#333132"/>
</g>
</svg>
